<mxfile host="app.diagrams.net" modified="2024-02-22T03:08:50.668Z" agent="Mozilla/5.0 (Windows NT 10.0; Win64; x64) AppleWebKit/537.36 (KHTML, like Gecko) Chrome/121.0.0.0 Safari/537.36" version="23.1.5" etag="bAv1buUwFBh5jpeZVJuX" type="github">
  <diagram name="Halaman-1" id="rRtaF3sUotqh3Lz_KmVm">
    <mxGraphModel>
      <root>
        <mxCell id="0" />
        <mxCell id="1" parent="0" />
      </root>
    </mxGraphModel>
  </diagram>
</mxfile>
